# xmcd
#
# Track frame offsets: 
#        150
#        11728
#        25533
#        38633
#        50115
#        62305
#        75488
#        88580
#        100513
#        113620
#        125715
#        138800
#        150178
#        162790
#        173288
#        184975
#
# Disc length: 2623 seconds
#
# Revision: 3
# Processed by: cddbd v1.5.2PL0 Copyright (c) Steve Scherf et al.
# Submitted via: ExactAudioCopy v0.99pb5
#
DISCID=ac0a3d10
DTITLE=Robert Johnson - King Of The Delta Blues Singers
DYEAR=1994
DGENRE=Blues
TTITLE0=Cross Road Blues [SA.2629-2]
TTITLE1=Terraplane Blues [SA.2586-1]
TTITLE2=Come On In My Kitchen [SA.2585-1]
TTITLE3=Walkin' Blues [SA.2630-1]
TTITLE4=Last Fair Deal Gone Down [SA.2631-1]
TTITLE5=32-20 Blues [SA.2616-2]
TTITLE6=Kind Hearted Woman Blues [SA.2580-1]
TTITLE7=If I Had Possession Over Judgment Day [SA.2633-1]
TTITLE8=Preachin' Blues (Up Jumped The Devil) [SA.2632-1]
TTITLE9=When You Got A Good Friend [SA.2584-1]
TTITLE10=Ramblin' On My Mind [SA.2583-1]
TTITLE11=Stones In My Passway [DAL.377-2]
TTITLE12=Traveling Riverside Blues [DAL.400-2]
TTITLE13=Milkcow's Calf Blues [DAL.403-3]
TTITLE14=Me And The Devil Blues [DAL.398-2]
TTITLE15=Hell Hound On My Trail [DAL.394-2]
EXTD=YEAR - 1994\nColumbia (SONY Music)  484419 2
EXTT0=
EXTT1=
EXTT2=
EXTT3=
EXTT4=
EXTT5=
EXTT6=
EXTT7=
EXTT8=
EXTT9=
EXTT10=
EXTT11=
EXTT12=
EXTT13=
EXTT14=
EXTT15=
PLAYORDER=
